# xmcd
#
# Track frame offsets:
#	150
#	24862
#	38822
#	59310
#	82202
#	103027
#	133522
#	154552
#	184217
#	202807
#
# Disc length: 3043 seconds
#
# Revision: 1
# Processed by: cddbd v1.4PL0 Copyright (c) Steve Scherf et al.
# Submitted via: EasyCDDAExtractor 5.0.7
#
DISCID=7a0be10a
DTITLE=Huong Lan - Loi Nguoi Ra Di
DYEAR=1900
DGENRE=Vietnamese
TTITLE0=Ngau Hung Ly Chim Quyen
TTITLE1=Mong Ban Dau
TTITLE2=Loi Nguoi Ra Di
TTITLE3=Khong Bao Gio Ngan Cach
TTITLE4=Lien Khuc Hai Hoa
TTITLE5=Sao Roi Tren Bien
TTITLE6=Noi Niem
TTITLE7=Tinh
TTITLE8=Dung Hoi Vi Sao Toi Buon
TTITLE9=Mua Dong Cua Anh
EXTD=
EXTT0=
EXTT1=
EXTT2=
EXTT3=
EXTT4=
EXTT5=
EXTT6=
EXTT7=
EXTT8=
EXTT9=
PLAYORDER=
